<svg width="24" height="25" viewBox="0 0 24 25" fill="none" xmlns="http://www.w3.org/2000/svg">
<g id="check-box 1">
<path id="Vector" d="M9.795 17C9.59846 16.9996 9.40994 16.922 9.27 16.784L6.22575 13.784C6.09666 13.6422 6.02678 13.4564 6.03045 13.2647C6.03412 13.073 6.11108 12.89 6.2455 12.7533C6.37992 12.6165 6.5616 12.5365 6.75321 12.5296C6.94482 12.5226 7.1318 12.5893 7.27575 12.716L9.78825 15.191L16.7182 8.225C16.7872 8.1532 16.8698 8.09585 16.9612 8.05631C17.0526 8.01676 17.1509 7.99581 17.2505 7.99468C17.3501 7.99354 17.4489 8.01224 17.5411 8.04969C17.6334 8.08714 17.7173 8.14259 17.7879 8.2128C17.8585 8.28301 17.9144 8.36658 17.9524 8.45863C17.9904 8.55068 18.0096 8.64936 18.0091 8.74894C18.0085 8.84851 17.9881 8.94697 17.9491 9.03858C17.91 9.13018 17.8532 9.2131 17.7817 9.2825L10.3267 16.7825C10.2568 16.8519 10.1738 16.9069 10.0825 16.9442C9.99128 16.9815 9.89358 17.0005 9.795 17Z" fill="black"/>
<path id="Vector_2" d="M19.5 22.25H4.5C3.90326 22.25 3.33097 22.0129 2.90901 21.591C2.48705 21.169 2.25 20.5967 2.25 20V5C2.25 4.40326 2.48705 3.83097 2.90901 3.40901C3.33097 2.98705 3.90326 2.75 4.5 2.75H19.5C20.0967 2.75 20.669 2.98705 21.091 3.40901C21.5129 3.83097 21.75 4.40326 21.75 5V20C21.75 20.5967 21.5129 21.169 21.091 21.591C20.669 22.0129 20.0967 22.25 19.5 22.25ZM4.5 4.25C4.30109 4.25 4.11032 4.32902 3.96967 4.46967C3.82902 4.61032 3.75 4.80109 3.75 5V20C3.75 20.1989 3.82902 20.3897 3.96967 20.5303C4.11032 20.671 4.30109 20.75 4.5 20.75H19.5C19.6989 20.75 19.8897 20.671 20.0303 20.5303C20.171 20.3897 20.25 20.1989 20.25 20V5C20.25 4.80109 20.171 4.61032 20.0303 4.46967C19.8897 4.32902 19.6989 4.25 19.5 4.25H4.5Z" fill="black"/>
</g>
</svg>
