<svg width="48" height="48" viewBox="0 0 48 48" fill="none" xmlns="http://www.w3.org/2000/svg">
<g id="shield (2) 1" clip-path="url(#clip0_22_3528)">
<g id="surface1">
<path id="Vector" d="M23.9997 14.8552C18.9567 14.8552 14.854 18.9579 14.854 24.0006C14.854 29.0437 18.9567 33.1463 23.9997 33.1463C29.0424 33.1463 33.1451 29.0437 33.1451 24.0006C33.1451 18.9579 29.0424 14.8552 23.9997 14.8552ZM29.4295 22.2783L22.8777 28.8302C22.6026 29.1052 22.2419 29.2429 21.8816 29.2429C21.5212 29.2429 21.1609 29.1056 20.8858 28.8302L18.3821 26.3264C17.832 25.7767 17.832 24.885 18.3821 24.3349C18.9318 23.7849 19.8235 23.7849 20.3735 24.3349L21.8816 25.843L27.4381 20.2869C27.9878 19.7368 28.8795 19.7368 29.4295 20.2869C29.9796 20.8365 29.9796 21.7283 29.4295 22.2783Z" fill="#0EE07D"/>
<path id="Vector_2" d="M44.3895 13.0235L44.3881 12.9861C44.3672 12.5251 44.3533 12.0373 44.3448 11.4946C44.3057 8.84797 42.2018 6.65876 39.5548 6.51082C34.036 6.20283 29.7668 4.40328 26.1189 0.847745L26.0878 0.818082C24.898 -0.272857 23.1032 -0.272857 21.913 0.818082L21.8819 0.847745C18.2341 4.40328 13.9648 6.20283 8.44601 6.51118C5.79942 6.65876 3.69517 8.84797 3.65599 11.4949C3.64793 12.034 3.63365 12.5218 3.61278 12.9861L3.61058 13.0729C3.50328 18.7005 3.36998 25.7042 5.71299 32.0613C7.00132 35.5571 8.95248 38.5959 11.5119 41.0938C14.427 43.9386 18.2451 46.197 22.86 47.8061C23.0102 47.8585 23.1662 47.901 23.3251 47.9328C23.5492 47.9775 23.7748 47.9998 24.0004 47.9998C24.226 47.9998 24.452 47.9775 24.6757 47.9328C24.8346 47.901 24.9917 47.8581 25.1426 47.8054C29.7521 46.1933 33.5662 43.9338 36.4786 41.0895C39.037 38.5908 40.9882 35.5513 42.2776 32.0547C44.6294 25.6786 44.4965 18.6617 44.3895 13.0235ZM23.9997 35.9629C17.4035 35.9629 12.0374 30.5968 12.0374 24.0006C12.0374 17.4045 17.4035 12.0384 23.9997 12.0384C30.5955 12.0384 35.9619 17.4045 35.9619 24.0006C35.9619 30.5968 30.5955 35.9629 23.9997 35.9629Z" fill="#0EE07D"/>
</g>
</g>
<defs>
<clipPath id="clip0_22_3528">
<rect width="48" height="48" fill="white"/>
</clipPath>
</defs>
</svg>
