<svg width="48" height="48" viewBox="0 0 48 48" fill="none" xmlns="http://www.w3.org/2000/svg">
<g id="cashback (1) 1">
<g id="layer1">
<path id="path5470" d="M24.5205 1.50604C23.8575 1.48954 23.1945 1.50604 22.5345 1.54954C18.2535 1.83004 14.2125 3.21304 10.6515 5.89204V4.49404C10.6485 3.67054 9.98101 3.00304 9.15751 3.00004C8.32951 2.99704 7.65451 3.66604 7.65151 4.49404V9.14404C7.65151 10.4805 9.26251 11.148 10.209 10.2075C17.1375 3.28054 28.104 2.56204 35.8755 8.52604C43.647 14.49 45.789 25.266 40.893 33.75C35.994 42.234 25.596 45.759 16.545 42.009C7.49401 38.259 2.63851 28.4175 5.17501 18.9555C5.39101 18.1545 4.91401 17.331 4.11151 17.118C3.31351 16.9005 2.49001 17.3715 2.27101 18.1695C-0.647992 29.0655 4.97251 40.47 15.393 44.7885C25.8135 49.1055 37.8465 45.009 43.4865 35.244C49.1265 25.479 46.6545 13.0095 37.7055 6.14404C33.7905 3.13954 29.1585 1.60954 24.5205 1.50604ZM24.006 8.64904C15.5445 8.64904 8.64601 15.537 8.64601 23.997C8.64601 32.457 15.546 39.354 24.006 39.354C32.466 39.354 39.351 32.4555 39.351 23.997C39.351 15.5385 32.466 8.64904 24.006 8.64904ZM24.006 14.5725C24.834 14.5755 25.503 15.2505 25.5 16.0785V16.3095C27 16.5135 28.2855 17.4435 28.968 18.738C29.352 19.4715 29.0685 20.3775 28.3335 20.763C27.603 21.147 26.6955 20.865 26.3085 20.133C26.04 19.6215 25.521 19.269 24.879 19.269H23.484C22.563 19.269 21.867 19.965 21.867 20.886C21.867 21.807 22.563 22.503 23.484 22.503H24.006H24.0795H24.525C27.057 22.503 29.13 24.5895 29.13 27.12C29.13 29.3175 27.5685 31.1715 25.5 31.626V31.9245C25.497 32.748 24.8295 33.4155 24.006 33.4185C23.1765 33.423 22.5 32.754 22.497 31.9245V31.6905C21 31.4835 19.7145 30.5595 19.0335 29.268C18.6465 28.536 18.93 27.6255 19.6635 27.24C20.3985 26.853 21.306 27.138 21.6915 27.873C21.96 28.3845 22.4895 28.734 23.13 28.734H24.525C25.4475 28.734 26.13 28.041 26.13 27.12C26.13 26.199 25.4475 25.503 24.525 25.503H24.006H23.484C20.952 25.503 18.867 23.4165 18.867 20.886C18.867 18.6945 20.433 16.842 22.497 16.383V16.0785C22.494 15.2445 23.1705 14.568 24.006 14.5725Z" fill="#0EE07D"/>
</g>
</g>
</svg>
