<svg width="48" height="48" viewBox="0 0 48 48" fill="none" xmlns="http://www.w3.org/2000/svg">
<g id="jasmine 1" clip-path="url(#clip0_22_3520)">
<g id="Group">
<path id="Vector" d="M23.1469 30.9727C22.3265 30.8052 21.582 30.421 20.9712 29.8817C20.23 30.3669 19.4496 30.7785 18.6437 31.1061C17.3474 31.633 15.3653 32.3599 13.0711 32.6258C13.0644 32.6299 13.0585 32.6346 13.0518 32.6385C9.17612 34.905 7.23514 38.1175 7.28278 42.1868C7.30491 44.0742 7.75182 45.7109 8.10346 46.7136C8.22884 47.0711 8.52122 47.3451 8.88655 47.4456C9.71811 47.6745 10.9776 47.9358 12.4479 47.9578C15.886 48.0067 18.8426 46.7813 21.233 44.3082C22.4535 43.0453 24.4463 40.1296 24.0801 34.789C23.9899 33.4754 23.676 32.1951 23.1469 30.9727Z" fill="#0EE07D"/>
<path id="Vector_2" d="M17.5886 28.5113C18.2461 28.2442 18.8837 27.9058 19.4893 27.5044C19.3731 27.0826 19.3096 26.6385 19.3096 26.1792C19.3096 25.5971 19.4098 25.0386 19.593 24.5204L19.0959 24.0705C18.7006 23.7407 15.7822 21.1764 14.4844 16.3993C11.8933 13.8137 8.65867 13.0226 4.86421 14.0493C3.07608 14.533 1.54452 15.3267 0.566948 15.9129C0.191019 16.1383 -0.0268123 16.5538 0.00272567 16.991C0.0664902 17.933 0.235279 19.2814 0.664564 20.7625C1.71471 24.385 3.76315 27.0792 6.75286 28.7701C9.62264 30.3932 13.1669 30.3087 17.5886 28.5113Z" fill="#0EE07D"/>
<path id="Vector_3" d="M20.8958 21.9241C20.9167 21.941 20.9322 21.9544 20.9521 21.9723L21.2533 22.2449C22.0453 21.6459 23.0234 21.2909 24.0812 21.2909C24.2199 21.2909 24.3568 21.2983 24.4925 21.3102C24.752 20.5222 25.0708 19.7717 25.4456 19.0729C26.4859 17.1334 28.2233 14.7484 30.9797 13.0883C31.9452 8.92883 31.1022 5.45094 28.4673 2.7447C27.189 1.4319 25.7548 0.588985 24.8054 0.122566C24.4574 -0.0483794 24.0469 -0.0329071 23.7122 0.162794C22.9186 0.626962 21.7656 1.39814 20.6277 2.50417C17.9991 5.05916 16.6663 8.13862 16.6663 11.6567C16.6663 14.4693 17.3724 17.0461 18.7649 19.3153C19.8148 21.0267 20.8851 21.9153 20.8958 21.9241Z" fill="#0EE07D"/>
<path id="Vector_4" d="M47.6127 17.7565C46.9268 17.1414 45.8954 16.3212 44.5942 15.5967C41.3985 13.8171 38.1295 13.4148 34.878 14.4008C34.2115 14.6029 33.5967 14.8588 33.0288 15.1538C32.9172 15.2377 32.7939 15.3048 32.6625 15.3523C30.292 16.7028 28.8003 18.7453 27.9145 20.397C27.585 21.0111 27.308 21.6794 27.0884 22.3873C28.1013 23.2318 28.7708 24.4923 28.8457 25.9125L29.0291 25.9084C30.6261 25.8628 34.429 26.0959 37.8831 28.8508C41.4101 28.7348 44.1951 26.9188 46.1663 23.4463C47.1234 21.7604 47.6727 20.043 47.9638 18.9075C48.0713 18.4884 47.9347 18.0454 47.6127 17.7565Z" fill="#0EE07D"/>
<path id="Vector_5" d="M37.173 31.982C36.9532 31.7545 36.7293 31.5443 36.503 31.3469C36.4811 31.3293 36.46 31.3107 36.4393 31.2919C33.6215 28.8709 30.4209 28.6707 29.1002 28.7087L28.15 28.7301C27.649 29.5657 26.9094 30.2349 26.0296 30.6398C26.4979 31.917 26.7819 33.2421 26.8748 34.5974C26.9964 36.3701 26.9471 39.1451 25.941 41.8898C28.1295 45.5659 31.2881 47.6032 35.3398 47.9459C37.1352 48.0973 38.7519 47.8754 39.8517 47.6417C40.3238 47.5414 40.6819 47.1576 40.7558 46.6807C40.9225 45.6044 41.0879 44.0399 41.034 42.2673C40.9028 37.9574 39.6037 34.497 37.173 31.982Z" fill="#0EE07D"/>
<path id="Vector_6" d="M24.0916 28.2623C25.232 28.2623 26.1565 27.3379 26.1565 26.1976C26.1565 25.0573 25.232 24.1329 24.0916 24.1329C22.9513 24.1329 22.0268 25.0573 22.0268 26.1976C22.0268 27.3379 22.9513 28.2623 24.0916 28.2623Z" fill="#0EE07D"/>
</g>
</g>
<defs>
<clipPath id="clip0_22_3520">
<rect width="48" height="48" fill="white"/>
</clipPath>
</defs>
</svg>
