<svg width="48" height="48" viewBox="0 0 48 48" fill="none" xmlns="http://www.w3.org/2000/svg">
<g id="artificial 1">
<g id="Group">
<path id="Vector" d="M40.9164 17.5636V16.5891C42.16 16.2982 43.0982 15.1854 43.0982 13.8545C43.0982 12.3127 41.8327 11.0472 40.2836 11.0472C38.7418 11.0472 37.4764 12.3127 37.4764 13.8545C37.4764 15.1345 38.3345 16.2036 39.5055 16.5382V17.5636C39.5055 18.2618 38.9309 18.8363 38.2327 18.8363H30.3782V20.2472H38.2327C39.7091 20.2472 40.9164 19.04 40.9164 17.5636Z" fill="#0EE07D"/>
<path id="Vector_2" d="M35.5564 10.9817V10.0072C36.8 9.71629 37.7382 8.60357 37.7382 7.27266C37.7382 5.73084 36.4727 4.47266 34.9236 4.47266C33.3818 4.47266 32.1164 5.73084 32.1164 7.27266C32.1164 8.55266 32.9745 9.62175 34.1455 9.95629V10.9817C34.1455 11.6799 33.5709 12.2545 32.8727 12.2545H30.3782V13.6654H32.8727C34.3491 13.6654 35.5564 12.4581 35.5564 10.9817Z" fill="#0EE07D"/>
<path id="Vector_3" d="M40.9164 35.2364V34.2618C40.9164 32.7854 39.7091 31.5854 38.24 31.5854H30.3855V32.9964H38.24C38.9382 32.9964 39.5127 33.5709 39.5127 34.2691V35.2945C38.3418 35.6364 37.4836 36.7054 37.4836 37.9782C37.4836 39.52 38.7491 40.7854 40.2909 40.7854C41.84 40.7854 43.1055 39.52 43.1055 37.9782C43.0909 36.64 42.1527 35.5273 40.9164 35.2364Z" fill="#0EE07D"/>
<path id="Vector_4" d="M34.3709 39.9345V38.9599C34.3709 37.4763 33.1709 36.2836 31.6945 36.2836H30.3855V37.6945H31.6945C32.3927 37.6945 32.9673 38.2618 32.9673 38.9672V39.9854C31.8036 40.3345 30.9455 41.3963 30.9455 42.6763C30.9455 44.2181 32.2036 45.4763 33.7455 45.4763C35.2945 45.4763 36.56 44.2181 36.56 42.6763C36.5455 41.3381 35.6145 40.2254 34.3709 39.9345Z" fill="#0EE07D"/>
<path id="Vector_5" d="M40.2036 28.72C41.7527 28.72 43.0182 27.4546 43.0182 25.9055C43.0182 24.3636 41.7527 23.1055 40.2036 23.1055C38.9091 23.1055 37.8109 24 37.5055 25.2073H30.3855V26.6182H37.5055C37.8182 27.8255 38.9018 28.72 40.2036 28.72Z" fill="#0EE07D"/>
<path id="Vector_6" d="M22.8218 2.53088C19.4618 2.53088 16.7345 5.25816 16.7345 8.67634C16.7345 9.02543 16.7927 9.37452 16.8509 9.71634C16.2109 9.48361 15.52 9.36725 14.7636 9.36725C11.4036 9.36725 8.67636 12.0945 8.67636 15.5127C8.67636 15.8763 8.71273 16.2254 8.77818 16.5745C8.78546 16.5818 8.8 16.5891 8.80727 16.5963C9.84 17.6872 11.2436 18.2836 12.7564 18.2836C13.1491 18.2836 13.4618 18.5963 13.4618 18.9891C13.4618 19.3818 13.1491 19.6945 12.7564 19.6945C11.1855 19.6945 9.70909 19.1709 8.50182 18.2182C6.37818 19.1636 4.90909 21.2872 4.90909 23.7527C4.90909 26.5963 6.88 29.0254 9.54909 29.6654C8.96727 30.5963 8.67636 31.6363 8.67636 32.7927C8.67636 36.0945 11.4036 38.88 14.7636 38.88C15.0691 38.88 15.3745 38.8509 15.68 38.8073C16.3855 36.6691 18.0945 35.0254 20.2691 34.4218C19.4036 33.5927 18.7636 32.5309 18.4364 31.3382C17.8036 31.8618 17.0327 32.24 16.16 32.4072C16.1164 32.4145 16.0727 32.4218 16.0291 32.4218C15.6945 32.4218 15.4036 32.1891 15.3382 31.8472C15.2655 31.4618 15.5127 31.0982 15.8982 31.0182C16.8945 30.8291 17.7091 30.2472 18.2327 29.4691C18.2618 29.36 18.3127 29.2654 18.3927 29.1854C18.7782 28.4872 18.9455 27.6582 18.8 26.7927C18.7345 26.4072 18.9964 26.0436 19.3818 25.9782C19.7673 25.9127 20.1309 26.1745 20.1964 26.56C20.4 27.7672 20.1745 28.9309 19.6291 29.9127C19.8255 32.7272 22.1527 34.8945 25.0327 34.8945C25.4255 34.8945 25.7382 35.2072 25.7382 35.6C25.7382 35.9927 25.4255 36.3054 25.0327 36.3054C23.9127 36.3054 22.8582 36.0436 21.9273 35.5782C19.3673 35.6654 17.3091 37.5054 16.8436 39.9491C17.3527 42.8 19.8327 44.9673 22.8291 44.9673C26.1891 44.9673 28.9745 42.24 28.9745 38.88V23.3454C28.8 23.36 28.6255 23.3818 28.4582 23.3818C27.5273 23.3818 26.6109 23.1345 25.7818 22.6618C24.8073 22.0945 24.0509 21.2509 23.5927 20.2327C22.7782 20.7054 21.8618 20.9527 20.9018 20.9527C20.8073 20.9527 20.7127 20.9527 20.6182 20.9454C20.2255 20.9236 19.9273 20.5963 19.9491 20.2036C19.9709 19.8109 20.3055 19.52 20.6909 19.5345C21.7455 19.5854 22.7636 19.2291 23.5491 18.5309C24.3418 17.8254 24.8073 16.8436 24.8582 15.7745C24.88 15.3818 25.2218 15.0836 25.6 15.1054C25.9855 15.1272 26.2909 15.4545 26.2691 15.8472C26.2036 17.1709 25.6655 18.3854 24.7636 19.3163C25.0764 20.2109 25.6727 20.96 26.4945 21.4327C27.2509 21.8691 28.1164 22.0291 28.9818 21.9127V8.67634C28.9673 5.25088 26.1818 2.53088 22.8218 2.53088Z" fill="#0EE07D"/>
</g>
</g>
</svg>
