<svg width="193" height="36" viewBox="0 0 193 36" fill="none" xmlns="http://www.w3.org/2000/svg">
<g id="Logo">
<g id="Group 47494">
<path id="Vector" d="M162.177 31.2522V7.34068C162.177 7.15521 162.251 6.97734 162.382 6.8462C162.513 6.71505 162.691 6.64137 162.877 6.64137H164.846C165.032 6.64137 165.21 6.71505 165.341 6.8462C165.472 6.97734 165.546 7.15521 165.546 7.34068V31.2498C165.546 31.4353 165.472 31.6132 165.341 31.7443C165.21 31.8755 165.032 31.9491 164.846 31.9491H162.877C162.692 31.9491 162.514 31.8758 162.383 31.7451C162.252 31.6145 162.178 31.4372 162.177 31.2522Z" fill="#09CFF6"/>
<path id="Vector_2" d="M58.6971 32.2102H56.1773C56.0668 32.2102 55.9578 32.184 55.8593 32.1338C55.7609 32.0835 55.6757 32.0107 55.6109 31.9212L49.9838 24.1496L46.4873 27.2848V31.5109C46.4873 31.6964 46.4136 31.8742 46.2825 32.0054C46.1514 32.1365 45.9735 32.2102 45.788 32.2102H43.823C43.6375 32.2102 43.4596 32.1365 43.3285 32.0054C43.1974 31.8742 43.1237 31.6964 43.1237 31.5109V7.56213C43.1237 7.37666 43.1974 7.19879 43.3285 7.06764C43.4596 6.9365 43.6375 6.86282 43.823 6.86282H45.7997C45.9851 6.86282 46.163 6.9365 46.2942 7.06764C46.4253 7.19879 46.499 7.37666 46.499 7.56213V22.7277L54.5852 15.4829C54.7136 15.3685 54.8796 15.3055 55.0514 15.3057L58.0328 15.2871C58.1741 15.2874 58.312 15.3305 58.4283 15.4108C58.5446 15.491 58.6339 15.6046 58.6844 15.7366C58.7349 15.8686 58.7442 16.0128 58.7111 16.1502C58.678 16.2875 58.604 16.4117 58.499 16.5062L52.5106 21.8955L59.2706 31.096C59.3479 31.2008 59.3944 31.3252 59.4048 31.4551C59.4152 31.585 59.3891 31.7151 59.3295 31.831C59.2699 31.9468 59.1791 32.0437 59.0674 32.1107C58.9556 32.1777 58.8274 32.2122 58.6971 32.2102Z" fill="#09CFF6"/>
<path id="Vector_3" d="M72.8907 17.737C74.5069 19.3594 75.3142 21.3695 75.3126 23.7673C75.311 26.1651 74.5014 28.169 72.8837 29.779C71.2613 31.3998 69.2566 32.2102 66.8697 32.2102C64.4827 32.2102 62.4726 31.3998 60.8394 29.779C59.2139 28.1581 58.4011 26.1542 58.4011 23.7673C58.4011 21.3803 59.2139 19.3702 60.8394 17.737C62.4586 16.1161 64.468 15.3065 66.8674 15.3081C69.2667 15.3096 71.2745 16.1193 72.8907 17.737ZM63.231 20.1426C62.3414 20.9854 61.7732 22.1118 61.624 23.3282C61.4749 24.5445 61.754 25.7748 62.4135 26.8077C63.073 27.8406 64.0717 28.6114 65.2379 28.9879C66.4041 29.3643 67.665 29.3228 68.8039 28.8704C69.9428 28.4181 70.8886 27.5832 71.4787 26.5091C72.0688 25.4351 72.2664 24.1891 72.0375 22.9852C71.8086 21.7813 71.1675 20.6948 70.2244 19.9123C69.2813 19.1297 68.0951 18.7002 66.8697 18.6974C66.1966 18.6767 65.5264 18.7943 64.9006 19.0429C64.2747 19.2915 63.7065 19.6657 63.231 20.1426Z" fill="#09CFF6"/>
<path id="Vector_4" d="M102.923 17.5225C104.322 19.1434 105.021 21.1099 105.021 23.4223V31.1659C105.021 31.3514 104.948 31.5292 104.817 31.6604C104.685 31.7915 104.508 31.8652 104.322 31.8652H102.634C102.449 31.8652 102.271 31.7915 102.14 31.6604C102.009 31.5292 101.935 31.3514 101.935 31.1659V23.4223C101.973 22.1205 101.529 20.8505 100.688 19.8559C100.262 19.3777 99.7398 18.9951 99.1554 18.7331C98.5711 18.4711 97.938 18.3356 97.2976 18.3356C96.6572 18.3356 96.0241 18.4711 95.4398 18.7331C94.8554 18.9951 94.3331 19.3777 93.9071 19.8559C93.0673 20.851 92.6234 22.1206 92.6601 23.4223V31.1659C92.6601 31.3514 92.5864 31.5292 92.4552 31.6604C92.3241 31.7915 92.1462 31.8652 91.9608 31.8652H90.2754C90.09 31.8652 89.9121 31.7915 89.781 31.6604C89.6498 31.5292 89.5761 31.3514 89.5761 31.1659V23.4223C89.6136 22.1211 89.161 20.8532 88.3081 19.8699C87.8847 19.3884 87.3638 19.0024 86.7799 18.7374C86.196 18.4725 85.5625 18.3347 84.9213 18.3332C84.2801 18.3316 83.6459 18.4664 83.0608 18.7285C82.4756 18.9906 81.9529 19.3741 81.5272 19.8535C80.6873 20.8487 80.2434 22.1183 80.2801 23.42V31.1636C80.2801 31.3491 80.2064 31.5269 80.0753 31.6581C79.9441 31.7892 79.7662 31.8629 79.5808 31.8629H77.8931C77.7077 31.8629 77.5298 31.7892 77.3986 31.6581C77.2675 31.5269 77.1938 31.3491 77.1938 31.1636V23.4223C77.1938 21.1099 77.8931 19.1434 79.2917 17.5225C79.976 16.6983 80.8377 16.0395 81.8126 15.5954C82.7875 15.1514 83.8502 14.9336 84.9211 14.9584C87.5008 14.9584 89.5637 16.0827 91.1099 18.3314C92.6546 16.0936 94.7168 14.9747 97.2964 14.9747C98.3657 14.9481 99.4272 15.1635 100.402 15.6047C101.376 16.0458 102.238 16.7014 102.923 17.5225Z" fill="#09CFF6"/>
<path id="Vector_5" d="M113.665 6.64836C112.772 6.63126 111.886 6.79443 111.058 7.12809C110.23 7.46175 109.478 7.95905 108.847 8.59021C108.216 9.22136 107.718 9.9734 107.385 10.8013C107.051 11.6292 106.888 12.5159 106.905 13.4083V31.2918C106.905 31.4772 106.979 31.6551 107.11 31.7863C107.241 31.9174 107.419 31.9911 107.604 31.9911H109.583C109.769 31.9911 109.947 31.9174 110.078 31.7863C110.209 31.6551 110.282 31.4772 110.282 31.2918V21.0074H115.502C115.687 21.0074 115.865 20.9337 115.996 20.8026C116.127 20.6714 116.201 20.4935 116.201 20.3081V18.3337C116.201 18.1482 116.127 17.9704 115.996 17.8392C115.865 17.7081 115.687 17.6344 115.502 17.6344H110.276V13.4129C110.264 12.9645 110.343 12.5184 110.509 12.1017C110.675 11.685 110.925 11.3065 111.242 10.9892C111.559 10.6719 111.937 10.4224 112.354 10.256C112.77 10.0896 113.216 10.0098 113.665 10.0213H115.492C115.678 10.0213 115.856 9.94765 115.987 9.8165C116.118 9.68536 116.192 9.50749 116.192 9.32202V7.34766C116.192 7.16219 116.118 6.98433 115.987 6.85318C115.856 6.72204 115.678 6.64836 115.492 6.64836H113.665Z" fill="#09CFF6"/>
<path id="Vector_6" d="M132.271 17.3943C133.885 19.0136 134.693 21.0229 134.693 23.4223C134.693 25.8217 133.882 27.8232 132.261 29.427C130.645 31.054 128.641 31.8668 126.25 31.8652C123.858 31.8637 121.851 31.0509 120.229 29.427C118.603 27.8077 117.791 25.8038 117.791 23.4153C117.791 21.0268 118.601 19.0175 120.222 17.3873C121.843 15.7789 123.852 14.9747 126.25 14.9747C128.648 14.9747 130.655 15.7813 132.271 17.3943ZM122.611 19.7976C121.722 20.6402 121.154 21.7661 121.005 22.9818C120.857 24.1976 121.136 25.4272 121.795 26.4595C122.454 27.4918 123.452 28.2622 124.618 28.6384C125.784 29.0146 127.044 28.9731 128.182 28.521C129.321 28.0688 130.266 27.2344 130.856 26.1609C131.446 25.0875 131.643 23.8421 131.414 22.6388C131.186 21.4355 130.545 20.3494 129.603 19.5672C128.66 18.7849 127.475 18.3554 126.25 18.3524C125.577 18.3317 124.907 18.4493 124.281 18.6979C123.655 18.9465 123.087 19.3207 122.611 19.7976Z" fill="#09CFF6"/>
<path id="Vector_7" d="M145.056 17.674C145.058 17.8451 144.996 18.0108 144.884 18.1397C144.771 18.2685 144.615 18.3517 144.446 18.3733C143.299 18.4697 142.224 18.9723 141.415 19.7906C140.938 20.2661 140.564 20.8343 140.315 21.4601C140.066 22.0859 139.948 22.7561 139.968 23.4293V31.1729C139.968 31.3584 139.894 31.5362 139.763 31.6674C139.632 31.7985 139.454 31.8722 139.268 31.8722H137.296C137.111 31.8722 136.933 31.7985 136.802 31.6674C136.671 31.5362 136.597 31.3584 136.597 31.1729V23.4223C136.597 21.0245 137.408 19.0151 139.028 17.3943C140.433 15.964 142.319 15.1066 144.32 14.9887C144.415 14.9836 144.51 14.998 144.599 15.0308C144.688 15.0637 144.77 15.1144 144.839 15.1799C144.907 15.2453 144.962 15.3241 145 15.4115C145.037 15.4989 145.057 15.593 145.056 15.688V17.674Z" fill="#09CFF6"/>
<path id="Vector_8" d="M155.399 15.6064V17.6018C155.399 17.7872 155.325 17.9651 155.194 18.0963C155.063 18.2274 154.885 18.3011 154.7 18.3011H150.313V31.2918C150.313 31.4772 150.239 31.6551 150.108 31.7863C149.977 31.9174 149.799 31.9911 149.613 31.9911H147.637C147.451 31.9911 147.273 31.9174 147.142 31.7863C147.011 31.6551 146.937 31.4772 146.937 31.2918V7.34533C146.937 7.15986 147.011 6.982 147.142 6.85085C147.273 6.71971 147.451 6.64603 147.637 6.64603H149.613C149.799 6.64603 149.977 6.71971 150.108 6.85085C150.239 6.982 150.313 7.15986 150.313 7.34533V14.9071H154.702C154.887 14.9077 155.064 14.9817 155.195 15.1128C155.326 15.2438 155.399 15.4214 155.399 15.6064Z" fill="#09CFF6"/>
<g id="xJ1nkO">
<path id="Vector_9" d="M24.7087 21.3174C25.6221 23.3275 26.3644 25.411 26.9278 27.5459C27.1842 28.5365 27.394 29.5412 27.6155 30.5412C27.7064 30.9468 27.5852 31.1379 27.1679 31.2405C24.9328 31.8407 22.5947 31.9527 20.3124 31.5692C17.4429 31.047 15.007 29.7044 12.8718 27.7463C11.1003 26.1309 9.71797 24.2125 8.48021 22.1845C7.93941 21.2988 7.51284 20.343 7.021 19.427L6.5548 18.5062C6.19349 17.6158 5.82053 16.7486 5.48486 15.8652C5.21213 15.1519 4.93941 14.4339 4.73894 13.6997C4.24477 11.8791 3.80654 10.0493 3.32169 8.22413C3.08859 7.35 2.93241 6.4479 2.60141 5.6134C1.99068 4.08425 1.39861 2.53647 0.466202 1.15651C0.296514 0.884167 0.140909 0.603296 0 0.315011C0.932403 0.315011 1.88112 0.259071 2.82285 0.32667C4.41493 0.438559 6.01167 0.58075 7.59209 0.792872C9.6224 1.07492 11.6434 1.41991 13.6527 1.79054C16.0019 2.24256 18.304 2.91211 20.5292 3.79055C23.2938 4.85815 25.8789 6.25442 28.1096 8.23345C30.9721 10.7719 32.7716 13.9001 33.2821 17.73C33.5213 19.6141 33.4694 21.5237 33.1283 23.392C32.7766 25.4422 32.1493 27.4354 31.2635 29.3174C31.1892 29.5238 31.1835 29.7486 31.2472 29.9585C31.7134 31.7627 32.2075 33.5645 32.6924 35.3664C32.7157 35.4596 32.7297 35.5552 32.7623 35.7067C32.1026 35.7067 31.4733 35.7067 30.8462 35.6951C30.767 35.6951 30.6528 35.5063 30.6271 35.392C30.1912 33.3897 29.8276 31.371 29.3264 29.3874C28.6366 26.6842 27.6581 24.0631 26.408 21.5691C25.8555 20.2335 24.2821 17.7393 24.2821 17.7393C23.0818 15.8689 21.699 14.1222 20.1539 12.5248C18.6287 10.9083 16.877 9.52161 14.9534 8.40827C14.8747 8.36222 14.7824 8.34492 14.6923 8.35932C17.465 10.4899 19.8624 13.0685 21.7856 15.9887C22.5082 17.04 24.7087 21.3174 24.7087 21.3174Z" fill="#0EE07D"/>
</g>
<path id="Vector_10" d="M192.791 31.1496L189.487 27.8442C191.565 25.3826 192.628 22.2225 192.46 19.0058C192.292 15.789 190.905 12.7569 188.583 10.5251C186.26 8.29333 183.175 7.02932 179.954 6.98979C176.733 6.95026 173.618 8.13817 171.241 10.3123C168.864 12.4864 167.404 15.4836 167.157 18.6952C166.91 21.9069 167.895 25.0921 169.912 27.604C171.928 30.1159 174.825 31.766 178.014 32.2194C181.203 32.6727 184.445 31.8952 187.082 30.0447L189.18 32.1426C189.311 32.2738 189.489 32.3476 189.674 32.3477H192.308C192.446 32.3463 192.581 32.3038 192.695 32.2259C192.809 32.1479 192.897 32.0379 192.949 31.9097C193.001 31.7815 193.013 31.6409 192.985 31.5056C192.957 31.3703 192.889 31.2465 192.791 31.1496ZM179.804 28.9608C177.701 28.9614 175.66 28.2483 174.015 26.938C172.369 25.6277 171.218 23.7979 170.747 21.7478C170.277 19.6977 170.517 17.5488 171.427 15.6526C172.337 13.7564 173.864 12.2252 175.757 11.3094C177.65 10.3936 179.799 10.1475 181.85 10.6113C183.902 11.0752 185.735 12.2215 187.05 13.8628C188.365 15.504 189.085 17.5431 189.091 19.6463C189.096 21.7496 188.388 23.7925 187.082 25.441L183.648 22.005C183.517 21.8741 183.339 21.8005 183.154 21.8005C182.969 21.8005 182.791 21.8741 182.66 22.005L181.352 23.3197C181.221 23.4509 181.148 23.6286 181.148 23.8139C181.148 23.9992 181.221 24.177 181.352 24.3081L184.646 27.6018C183.189 28.4938 181.513 28.9642 179.804 28.9608Z" fill="#09CFF6"/>
</g>
</g>
</svg>
