<?xml version="1.0" encoding="UTF-8"?>
<svg xmlns="http://www.w3.org/2000/svg" xmlns:xlink="http://www.w3.org/1999/xlink" width="700px" height="744px" viewBox="0 0 700 743" version="1.1">
<g id="surface1">
<path style=" stroke:none;fill-rule:nonzero;fill:rgb(5.490196%,87.843137%,49.019608%);fill-opacity:1;" d="M 517.386719 440.679688 C 536.515625 482.714844 552.058594 526.289062 563.855469 570.933594 C 569.222656 591.652344 573.617188 612.660156 578.253906 633.574219 C 580.15625 642.054688 577.617188 646.050781 568.882812 648.199219 C 522.078125 660.75 473.121094 663.09375 425.332031 655.070312 C 365.246094 644.152344 314.238281 616.074219 269.53125 575.125 C 232.433594 541.34375 203.488281 501.222656 177.570312 458.8125 C 166.246094 440.289062 157.316406 420.304688 147.015625 401.144531 L 137.253906 381.890625 C 129.6875 363.269531 121.878906 345.132812 114.851562 326.660156 C 109.140625 311.742188 103.429688 296.726562 99.230469 281.371094 C 88.882812 243.300781 79.707031 205.035156 69.554688 166.863281 C 64.671875 148.585938 61.402344 129.71875 54.472656 112.265625 C 41.683594 80.289062 29.285156 47.921875 9.761719 19.0625 C 6.207031 13.367188 2.949219 7.492188 0 1.464844 C 19.523438 1.464844 39.390625 0.292969 59.109375 1.707031 C 92.445312 4.046875 125.882812 7.019531 158.972656 11.457031 C 201.488281 17.355469 243.808594 24.570312 285.878906 32.320312 C 335.070312 41.773438 383.277344 55.777344 429.871094 74.148438 C 487.761719 96.472656 541.890625 125.671875 588.601562 167.058594 C 648.539062 220.144531 686.222656 285.566406 696.910156 365.65625 C 701.917969 405.058594 700.832031 444.992188 693.6875 484.066406 C 686.324219 526.941406 673.191406 568.621094 654.640625 607.980469 C 653.085938 612.296875 652.964844 616.996094 654.300781 621.386719 C 664.0625 659.117188 674.410156 696.800781 684.5625 734.480469 C 685.050781 736.429688 685.34375 738.429688 686.027344 741.597656 C 672.214844 741.597656 659.035156 741.597656 645.90625 741.355469 C 644.246094 741.355469 641.851562 737.40625 641.316406 735.015625 C 632.1875 693.144531 624.574219 650.929688 614.078125 609.445312 C 599.632812 552.914062 579.148438 498.097656 552.96875 445.945312 C 541.402344 418.011719 508.457031 365.851562 508.457031 365.851562 C 483.320312 326.738281 454.363281 290.207031 422.011719 256.804688 C 390.074219 222.996094 353.394531 193.996094 313.117188 170.714844 C 311.46875 169.75 309.535156 169.390625 307.648438 169.691406 C 365.707031 214.246094 415.90625 268.171875 456.179688 329.242188 C 471.308594 351.226562 517.386719 440.679688 517.386719 440.679688 Z M 517.386719 440.679688 "/>
</g>
</svg>
