<svg width="430" height="457" viewBox="0 0 430 457" fill="none" xmlns="http://www.w3.org/2000/svg">
<path d="M317.823 271.051C329.573 296.906 339.121 323.706 346.368 351.166C349.666 363.909 352.364 376.832 355.213 389.695C356.382 394.912 354.823 397.37 349.456 398.69C320.706 406.409 290.631 407.851 261.275 402.917C224.365 396.201 193.033 378.931 165.568 353.745C142.781 332.966 125.001 308.29 109.079 282.204C102.123 270.811 96.6363 258.518 90.3098 246.734L84.3132 234.891C79.6658 223.437 74.8684 212.283 70.5508 200.92C67.0428 191.745 63.5347 182.51 60.9562 173.065C54.5997 149.648 48.9628 126.111 42.7263 102.634C39.7279 91.3904 37.7191 79.7868 33.4614 69.0527C25.6058 49.3837 17.99 29.4747 5.99667 11.7246C3.814 8.22153 1.81248 4.60874 0 0.90057C11.9933 0.90057 24.1966 0.181024 36.3098 1.05054C56.7885 2.48974 77.327 4.31873 97.6558 7.04721C123.771 10.6752 149.767 15.1127 175.612 19.8801C205.83 25.6943 235.441 34.3066 264.063 45.6057C299.624 59.3381 332.875 77.2981 361.569 102.754C398.389 135.406 421.536 175.644 428.102 224.906C431.179 249.141 430.511 273.704 426.123 297.736C421.599 324.107 413.531 349.745 402.137 373.953C401.181 376.608 401.107 379.499 401.927 382.199C407.923 405.406 414.28 428.583 420.516 451.76C420.816 452.959 420.996 454.189 421.416 456.138C412.931 456.138 404.835 456.138 396.77 455.988C395.75 455.988 394.281 453.559 393.951 452.09C388.344 426.334 383.667 400.369 377.22 374.853C368.347 340.083 355.762 306.368 339.681 274.289C332.575 257.108 312.337 225.026 312.337 225.026C296.897 200.968 279.11 178.5 259.236 157.953C239.618 137.16 217.085 119.323 192.343 105.003C191.33 104.41 190.144 104.188 188.985 104.373C224.649 131.778 255.486 164.946 280.224 202.509C289.519 216.031 317.823 271.051 317.823 271.051Z" fill="#0EE07D"/>
</svg>
